<?xml version="1.0" encoding="UTF-8" standalone="no"?>
<svg
   xmlns:dc="http://purl.org/dc/elements/1.1/"
   xmlns:cc="http://creativecommons.org/ns#"
   xmlns:rdf="http://www.w3.org/1999/02/22-rdf-syntax-ns#"
   xmlns:svg="http://www.w3.org/2000/svg"
   xmlns="http://www.w3.org/2000/svg"
   xmlns:sodipodi="http://sodipodi.sourceforge.net/DTD/sodipodi-0.dtd"
   xmlns:inkscape="http://www.inkscape.org/namespaces/inkscape"
   version="1.1"
   id="Capa_1"
   x="0px"
   y="0px"
   width="28.125px"
   height="28.125px"
   viewBox="0 0 28.125 28.125"
   style="enable-background:new 0 0 28.125 28.125;"
   xml:space="preserve"
   sodipodi:docname="security-alert-symbol-of-an-exclamation-sign-inside-a-shield-svgrepo-com.svg"
   inkscape:version="1.0.1 (0767f8302a, 2020-10-17)"><metadata
   id="metadata939"><rdf:RDF><cc:Work
       rdf:about=""><dc:format>image/svg+xml</dc:format><dc:type
         rdf:resource="http://purl.org/dc/dcmitype/StillImage" /></cc:Work></rdf:RDF></metadata><defs
   id="defs937" /><sodipodi:namedview
   pagecolor="#ffffff"
   bordercolor="#666666"
   borderopacity="1"
   objecttolerance="10"
   gridtolerance="10"
   guidetolerance="10"
   inkscape:pageopacity="0"
   inkscape:pageshadow="2"
   inkscape:window-width="1920"
   inkscape:window-height="948"
   id="namedview935"
   showgrid="false"
   inkscape:zoom="26.915556"
   inkscape:cx="14.0625"
   inkscape:cy="14.0625"
   inkscape:window-x="0"
   inkscape:window-y="27"
   inkscape:window-maximized="1"
   inkscape:current-layer="Capa_1" />
<g
   id="g902"
   style="fill:#ff832b;fill-opacity:1">
	<g
   id="g900"
   style="fill:#ff832b;fill-opacity:1">
		<path
   d="M14.063,0L1.659,6.617v0.464c0,13.979,11.906,20.767,12.026,20.834l0.378,0.21l0.377-0.21    c0.12-0.067,12.026-6.854,12.026-20.834V6.617L14.063,0z M14.063,26.329C12.13,25.096,3.445,18.92,3.214,7.544l10.849-5.787    l10.849,5.786C24.681,18.919,15.996,25.094,14.063,26.329z"
   id="path896"
   style="fill:#ff832b;fill-opacity:1" />
		<path
   d="M4.004,8.001c0.416,10.17,7.652,15.812,10.059,17.412c2.407-1.601,9.643-7.241,10.059-17.411L14.063,2.636L4.004,8.001z     M14,21.191c-1.067,0-1.778-0.771-1.778-1.799c0-1.047,0.731-1.799,1.778-1.799c1.048,0,1.739,0.752,1.759,1.799    C15.759,20.421,15.067,21.191,14,21.191z M15.127,16.605h-2.253l-0.456-8.954h3.144L15.127,16.605z"
   id="path898"
   style="fill:#ff832b;fill-opacity:1" />
	</g>
</g>
<g
   id="g904">
</g>
<g
   id="g906">
</g>
<g
   id="g908">
</g>
<g
   id="g910">
</g>
<g
   id="g912">
</g>
<g
   id="g914">
</g>
<g
   id="g916">
</g>
<g
   id="g918">
</g>
<g
   id="g920">
</g>
<g
   id="g922">
</g>
<g
   id="g924">
</g>
<g
   id="g926">
</g>
<g
   id="g928">
</g>
<g
   id="g930">
</g>
<g
   id="g932">
</g>
</svg>
