<?xml version="1.0" encoding="UTF-8" standalone="no"?>
<svg
   xmlns:dc="http://purl.org/dc/elements/1.1/"
   xmlns:cc="http://creativecommons.org/ns#"
   xmlns:rdf="http://www.w3.org/1999/02/22-rdf-syntax-ns#"
   xmlns:svg="http://www.w3.org/2000/svg"
   xmlns="http://www.w3.org/2000/svg"
   xmlns:sodipodi="http://sodipodi.sourceforge.net/DTD/sodipodi-0.dtd"
   xmlns:inkscape="http://www.inkscape.org/namespaces/inkscape"
   version="1.1"
   id="Capa_1"
   x="0px"
   y="0px"
   viewBox="0 0 296.096 296.096"
   style="enable-background:new 0 0 296.096 296.096;"
   xml:space="preserve"
   sodipodi:docname="logo.svg"
   inkscape:version="1.0.1 (0767f8302a, 2020-10-17)"><metadata
   id="metadata957"><rdf:RDF><cc:Work
       rdf:about=""><dc:format>image/svg+xml</dc:format><dc:type
         rdf:resource="http://purl.org/dc/dcmitype/StillImage" /></cc:Work></rdf:RDF></metadata><defs
   id="defs955" /><sodipodi:namedview
   pagecolor="#ffffff"
   bordercolor="#666666"
   borderopacity="1"
   objecttolerance="10"
   gridtolerance="10"
   guidetolerance="10"
   inkscape:pageopacity="0"
   inkscape:pageshadow="2"
   inkscape:window-width="1910"
   inkscape:window-height="948"
   id="namedview953"
   showgrid="false"
   inkscape:zoom="2.5566033"
   inkscape:cx="148.048"
   inkscape:cy="148.048"
   inkscape:window-x="0"
   inkscape:window-y="27"
   inkscape:window-maximized="0"
   inkscape:current-layer="g920"
   inkscape:document-rotation="0" />
<g
   id="g920"
   style="fill:#800000;fill-opacity:1">
	<path
   d="M101.15,175.142c6.966,0,14.634,0.68,21.634,1.966v-20.969h51v37.424c6,2.203,10.381,4.579,14.494,7.567   c7.797,5.664,12.082,13.099,12.339,21.254c9.925-2.345,19.028-6.321,26.905-11.737c2.846-1.956,6.262-3.668,8.262-5.137v-58.243   L148.047,49.23l-89.263,98.628v35.247c6-1.521,11.468-3.156,17.806-4.884C84.086,176.178,92.405,175.142,101.15,175.142z"
   id="path914"
   style="fill:#0068aa;fill-opacity:1;stroke-width:1.0015748;stroke-miterlimit:4;stroke-dasharray:none" />
	<polygon
   points="148.446,25.313 247.63,136.139 270.251,136.139 148.247,0 97.784,55.572 97.784,33.139 60.784,33.139    60.784,96.454 25.201,136.139 48.144,136.139  "
   id="polygon916"
   style="fill:#0068aa;fill-opacity:1;stroke-width:1.0015748;stroke-miterlimit:4;stroke-dasharray:none" />
	<path
   d="M259.083,214.931c-5.494,0-12.89,2.44-22.289,8.901c-17.182,11.811-38.215,17.012-57.433,17.012   c-15.623,0-30.045-3.435-40.23-9.546c-5.046-3.028-5.031-4.039-2.104-4.039c5.878,0,23.504,4.079,35.449,4.079   c5.878,0,10.379-0.987,11.432-3.934c4.867-13.628-14.001-18.016-33.73-26c-14.444-5.848-32.073-10.262-48.861-10.263   c-6.999,0-13.914,0.767-20.332,2.517c-29.141,7.945-50.199,13.93-56.199,15.873v76.48c12-4.413,25.9-8.642,33.81-8.642   c14.516,0,73.253,18.726,106.51,18.726c4.658,0,8.829-0.367,12.298-1.204c28.227-6.814,77.232-46.725,90.533-60.351   C274.323,227.998,271.797,214.931,259.083,214.931z"
   id="path918"
   style="fill:#0068aa;fill-opacity:1;stroke-width:1.0015748;stroke-miterlimit:4;stroke-dasharray:none" />
</g>
<g
   id="g922">
</g>
<g
   id="g924">
</g>
<g
   id="g926">
</g>
<g
   id="g928">
</g>
<g
   id="g930">
</g>
<g
   id="g932">
</g>
<g
   id="g934">
</g>
<g
   id="g936">
</g>
<g
   id="g938">
</g>
<g
   id="g940">
</g>
<g
   id="g942">
</g>
<g
   id="g944">
</g>
<g
   id="g946">
</g>
<g
   id="g948">
</g>
<g
   id="g950">
</g>
</svg>
